<svg viewBox="0 0 442.79 453.2" xmlns="http://www.w3.org/2000/svg"><circle cx="166.28" cy="392.05" fill="#fbc907" r="55.15"/><circle cx="361.51" cy="392.05" fill="#fbc907" r="55.15"/><path d="m222.53 392.05a54.7 54.7 0 0 1 -1 10.48 55.15 55.15 0 0 0 -108.29 0 55.15 55.15 0 1 1 109.3-10.48z" fill="#f3a70f"/><path d="m417.76 392.05a54.7 54.7 0 0 1 -1 10.48 55.15 55.15 0 0 0 -108.29 0 55.15 55.15 0 1 1 109.3-10.48z" fill="#f3a70f"/><path d="m92.38 278.26a42.1 42.1 0 0 0 42.1 42.1h259.94a42.1 42.1 0 0 0 42.1-42.1v-156.26a42.1 42.1 0 0 0 -42.1-42.1h-300.94c-2.21 25.37-1.1 198.36-1.1 198.36z" fill="#fbc907"/><path d="m434 292.11a42.13 42.13 0 0 1 -37.39 22.73h-260a42.1 42.1 0 0 1 -42.09-42.09s-1.1-173 1.1-198.36h21.38c-1.13 52.81-.32 178.51-.32 178.51a42.1 42.1 0 0 0 42.05 42.1h260a42.06 42.06 0 0 0 15.27-2.89z" fill="#f3a70f"/><g fill="#426572"><path d="m394.69 325.25h-259.94a48.15 48.15 0 0 1 -48.09-48.09v-178.51a86.75 86.75 0 0 0 -86.66-86.65v-12a98.83 98.83 0 0 1 95.22 72.8h299.47a48.15 48.15 0 0 1 48.1 48.09v156.27a48.15 48.15 0 0 1 -48.1 48.09zm-297.01-240.45a99 99 0 0 1 1 13.85v178.51a36.14 36.14 0 0 0 36.09 36.09h259.92a36.14 36.14 0 0 0 36.1-36.09v-156.27a36.14 36.14 0 0 0 -36.1-36.09z"/><path d="m164.07 453.2a61.15 61.15 0 1 1 61.15-61.15 61.22 61.22 0 0 1 -61.15 61.15zm0-110.3a49.15 49.15 0 1 0 49.15 49.15 49.21 49.21 0 0 0 -49.15-49.15z"/><path d="m359.3 453.2a61.15 61.15 0 1 1 61.15-61.15 61.22 61.22 0 0 1 -61.15 61.15zm0-110.3a49.15 49.15 0 1 0 49.15 49.15 49.21 49.21 0 0 0 -49.15-49.15z"/><path d="m136.6 82.11h12v239.35h-12z"/><path d="m198.09 82.11h12v239.35h-12z"/><path d="m259.58 82.11h12v239.35h-12z"/><path d="m321.08 82.11h12v239.35h-12z"/><path d="m382.57 82.11h12v239.35h-12z"/><path d="m92.65 116.43h343.86v12h-343.86z"/><path d="m92.65 168.52h343.86v12h-343.86z"/><path d="m92.65 220.6h343.86v12h-343.86z"/><path d="m92.65 272.69h343.86v12h-343.86z"/></g><path d="m380.53 411.91a51.08 51.08 0 0 0 8.67-10.42 70.56 70.56 0 0 0 5.28-10c2.62-6 3.71-10.14 4.85-10 1 .07 1.81 4.55.32 11.64a46.4 46.4 0 0 1 -4.34 12 45.32 45.32 0 0 1 -9.61 12.54 40.84 40.84 0 0 1 -13.59 8.31 51.83 51.83 0 0 1 -12.32 2.79 46.88 46.88 0 0 1 -8.31.23c-2-.16-3.09-.5-3.17-1s.9-1.18 2.71-1.92 4.47-1.57 7.66-2.59a87.93 87.93 0 0 0 10.73-4 43.43 43.43 0 0 0 11.12-7.58z" fill="#fff"/></svg>